<?xml version="1.0" encoding="utf-8"?>
<!-- Generator: Adobe Illustrator 24.0.2, SVG Export Plug-In . SVG Version: 6.00 Build 0)  -->
<svg version="1.1" xmlns="http://www.w3.org/2000/svg" xmlns:xlink="http://www.w3.org/1999/xlink" x="0px" y="0px"
	 viewBox="0 0 200 200" style="enable-background:new 0 0 200 200;" xml:space="preserve">
<style type="text/css">
	.st0{opacity:0.15;}
	.st1{fill:#FFFFFF;}
</style>
<g id="Слой_1">
	<g class="st0">
		<g>
			<path class="st1" d="M75,139.1l-3.9-0.7c-0.4-1.3-0.9-2.6-1.6-3.8l2.3-3.2c1-1.4,0.8-3.3-0.4-4.5l-3.5-3.5c-0.7-0.7-1.5-1-2.4-1
				c-0.7,0-1.4,0.2-2,0.6l-3.2,2.3c-1.3-0.7-2.6-1.2-3.9-1.6l-0.7-3.9c-0.3-1.7-1.7-2.9-3.4-2.9h-4.9c-1.7,0-3.1,1.2-3.4,2.9l-0.7,4
				c-1.3,0.4-2.6,0.9-3.8,1.6l-3.2-2.3c-0.6-0.4-1.3-0.6-2-0.6c-0.9,0-1.8,0.4-2.4,1l-3.5,3.5c-1.2,1.2-1.4,3.1-0.4,4.5l2.3,3.3
				c-0.6,1.2-1.2,2.5-1.6,3.8l-3.9,0.7c-1.7,0.3-2.9,1.7-2.9,3.4v4.9c0,1.7,1.2,3.1,2.9,3.4l4,0.7c0.4,1.3,0.9,2.6,1.6,3.8l-2.3,3.2
				c-1,1.4-0.8,3.3,0.4,4.5l3.5,3.5c0.7,0.7,1.5,1,2.4,1c0.7,0,1.4-0.2,2-0.6l3.3-2.3c1.2,0.6,2.4,1.1,3.7,1.5l0.7,3.9
				c0.3,1.7,1.7,2.9,3.4,2.9h4.9c1.7,0,3.1-1.2,3.4-2.9l0.7-3.9c1.3-0.4,2.6-0.9,3.8-1.6l3.2,2.3c0.6,0.4,1.3,0.6,2,0.6l0,0
				c0.9,0,1.8-0.4,2.4-1l3.5-3.5c1.2-1.2,1.4-3.1,0.4-4.5l-2.3-3.2c0.6-1.2,1.2-2.5,1.6-3.8l3.9-0.7c1.7-0.3,2.9-1.7,2.9-3.4v-4.9
				C77.9,140.8,76.7,139.4,75,139.1z M74.8,147.4c0,0.2-0.1,0.3-0.3,0.3l-4.9,0.8c-0.6,0.1-1.1,0.6-1.3,1.2c-0.4,1.7-1.1,3.4-2,4.9
				c-0.3,0.5-0.3,1.2,0.1,1.7l2.9,4.1c0.1,0.1,0.1,0.3,0,0.4l-3.5,3.5c-0.1,0.1-0.2,0.1-0.2,0.1c-0.1,0-0.1,0-0.2-0.1l-4.1-2.9
				c-0.5-0.4-1.2-0.4-1.7-0.1c-1.5,0.9-3.2,1.6-4.9,2c-0.6,0.2-1.1,0.7-1.2,1.3l-0.8,4.9c0,0.2-0.2,0.3-0.3,0.3h-4.9
				c-0.2,0-0.3-0.1-0.3-0.3l-0.8-4.9c-0.1-0.6-0.6-1.1-1.2-1.3c-1.7-0.4-3.3-1.1-4.8-2c-0.2-0.1-0.5-0.2-0.8-0.2
				c-0.3,0-0.6,0.1-0.9,0.3l-4.1,2.9c-0.1,0-0.1,0.1-0.2,0.1c0,0-0.1,0-0.2-0.1l-3.5-3.5c-0.1-0.1-0.1-0.3,0-0.4l2.9-4
				c0.4-0.5,0.4-1.2,0.1-1.7c-0.9-1.5-1.6-3.2-2.1-4.9c-0.2-0.6-0.7-1.1-1.3-1.2l-4.9-0.8c-0.2,0-0.3-0.2-0.3-0.3v-4.9
				c0-0.2,0.1-0.3,0.3-0.3l4.9-0.8c0.6-0.1,1.1-0.6,1.3-1.2c0.4-1.7,1.1-3.4,2-4.9c0.3-0.5,0.3-1.2-0.1-1.7l-2.9-4.1
				c-0.1-0.1-0.1-0.3,0-0.4l3.5-3.5c0.1-0.1,0.2-0.1,0.2-0.1c0.1,0,0.1,0,0.2,0.1l4,2.9c0.5,0.4,1.2,0.4,1.7,0.1
				c1.5-0.9,3.2-1.6,4.9-2.1c0.6-0.2,1.1-0.7,1.2-1.3l0.8-4.9c0-0.2,0.2-0.3,0.3-0.3h4.9c0.2,0,0.3,0.1,0.3,0.3l0.8,4.9
				c0.1,0.6,0.6,1.1,1.2,1.3c1.8,0.4,3.4,1.1,5,2.1c0.5,0.3,1.2,0.3,1.7-0.1l4-2.9c0.1,0,0.1-0.1,0.2-0.1c0,0,0.1,0,0.2,0.1l3.5,3.5
				c0.1,0.1,0.1,0.3,0,0.4l-2.9,4.1c-0.4,0.5-0.4,1.2-0.1,1.7c0.9,1.5,1.6,3.2,2,4.9c0.2,0.6,0.7,1.1,1.3,1.2l4.9,0.8
				c0.2,0,0.3,0.2,0.3,0.3L74.8,147.4L74.8,147.4z"/>
			<path class="st1" d="M50,132.9c-6.7,0-12.1,5.4-12.1,12.1S43.3,157,50,157S62,151.6,62,145S56.6,132.9,50,132.9z M50,153.9
				c-4.9,0-8.9-4-8.9-8.9c0-4.9,4-8.9,8.9-8.9s8.9,4,8.9,8.9C58.9,149.9,54.9,153.9,50,153.9z"/>
		</g>
	</g>
	<g class="st0">
		<g>
			<path class="st1" d="M170.6,139.1l-3.9-0.7c-0.4-1.3-0.9-2.6-1.6-3.8l2.3-3.2c1-1.4,0.8-3.3-0.4-4.5l-3.5-3.5
				c-0.7-0.7-1.5-1-2.4-1c-0.7,0-1.4,0.2-2,0.6l-3.2,2.3c-1.3-0.7-2.6-1.2-3.9-1.6l-0.7-3.9c-0.3-1.7-1.7-2.9-3.4-2.9H143
				c-1.7,0-3.1,1.2-3.4,2.9l-0.7,4c-1.3,0.4-2.6,0.9-3.8,1.6l-3.2-2.3c-0.6-0.4-1.3-0.6-2-0.6c-0.9,0-1.8,0.4-2.4,1l-3.5,3.5
				c-1.2,1.2-1.4,3.1-0.4,4.5l2.3,3.3c-0.6,1.2-1.2,2.5-1.6,3.8l-3.9,0.7c-1.7,0.3-2.9,1.7-2.9,3.4v4.9c0,1.7,1.2,3.1,2.9,3.4l4,0.7
				c0.4,1.3,0.9,2.6,1.6,3.8l-2.3,3.2c-1,1.4-0.8,3.3,0.4,4.5l3.5,3.5c0.7,0.7,1.5,1,2.4,1c0.7,0,1.4-0.2,2-0.6l3.3-2.3
				c1.2,0.6,2.4,1.1,3.7,1.5l0.7,3.9c0.3,1.7,1.7,2.9,3.4,2.9h4.9c1.7,0,3.1-1.2,3.4-2.9l0.7-3.9c1.3-0.4,2.6-0.9,3.8-1.6l3.2,2.3
				c0.6,0.4,1.3,0.6,2,0.6l0,0c0.9,0,1.8-0.4,2.4-1l3.5-3.5c1.2-1.2,1.4-3.1,0.4-4.5l-2.3-3.2c0.6-1.2,1.2-2.5,1.6-3.8l3.9-0.7
				c1.7-0.3,2.9-1.7,2.9-3.4v-4.9C173.5,140.8,172.3,139.4,170.6,139.1z M170.3,147.4c0,0.2-0.1,0.3-0.3,0.3l-4.9,0.8
				c-0.6,0.1-1.1,0.6-1.3,1.2c-0.4,1.7-1.1,3.4-2,4.9c-0.3,0.5-0.3,1.2,0.1,1.7l2.9,4.1c0.1,0.1,0.1,0.3,0,0.4l-3.5,3.5
				c-0.1,0.1-0.2,0.1-0.2,0.1c-0.1,0-0.1,0-0.2-0.1l-4.1-2.9c-0.5-0.4-1.2-0.4-1.7-0.1c-1.5,0.9-3.2,1.6-4.9,2
				c-0.6,0.2-1.1,0.7-1.2,1.3l-0.8,4.9c0,0.2-0.2,0.3-0.3,0.3h-4.9c-0.2,0-0.3-0.1-0.3-0.3l-0.8-4.9c-0.1-0.6-0.6-1.1-1.2-1.3
				c-1.7-0.4-3.3-1.1-4.8-2c-0.2-0.1-0.5-0.2-0.8-0.2c-0.3,0-0.6,0.1-0.9,0.3l-4.1,2.9c-0.1,0-0.1,0.1-0.2,0.1c0,0-0.1,0-0.2-0.1
				l-3.5-3.5c-0.1-0.1-0.1-0.3,0-0.4l2.9-4c0.4-0.5,0.4-1.2,0.1-1.7c-0.9-1.5-1.6-3.2-2.1-4.9c-0.2-0.6-0.7-1.1-1.3-1.2l-4.9-0.8
				c-0.2,0-0.3-0.2-0.3-0.3v-4.9c0-0.2,0.1-0.3,0.3-0.3l4.9-0.8c0.6-0.1,1.1-0.6,1.3-1.2c0.4-1.7,1.1-3.4,2-4.9
				c0.3-0.5,0.3-1.2-0.1-1.7l-2.9-4.1c-0.1-0.1-0.1-0.3,0-0.4l3.5-3.5c0.1-0.1,0.2-0.1,0.2-0.1c0.1,0,0.1,0,0.2,0.1l4,2.9
				c0.5,0.4,1.2,0.4,1.7,0.1c1.5-0.9,3.2-1.6,4.9-2.1c0.6-0.2,1.1-0.7,1.2-1.3l0.8-4.9c0-0.2,0.2-0.3,0.3-0.3h4.9
				c0.2,0,0.3,0.1,0.3,0.3l0.8,4.9c0.1,0.6,0.6,1.1,1.2,1.3c1.8,0.4,3.4,1.1,5,2.1c0.5,0.3,1.2,0.3,1.7-0.1l4-2.9
				c0.1,0,0.1-0.1,0.2-0.1c0,0,0.1,0,0.2,0.1l3.5,3.5c0.1,0.1,0.1,0.3,0,0.4l-2.9,4.1c-0.4,0.5-0.4,1.2-0.1,1.7
				c0.9,1.5,1.6,3.2,2,4.9c0.2,0.6,0.7,1.1,1.3,1.2l4.9,0.8c0.2,0,0.3,0.2,0.3,0.3L170.3,147.4L170.3,147.4z"/>
			<path class="st1" d="M145.5,132.9c-6.7,0-12.1,5.4-12.1,12.1c0,6.7,5.4,12.1,12.1,12.1s12.1-5.4,12.1-12.1
				C157.6,138.3,152.2,132.9,145.5,132.9z M145.5,153.9c-4.9,0-8.9-4-8.9-8.9c0-4.9,4-8.9,8.9-8.9c4.9,0,8.9,4,8.9,8.9
				C154.4,149.9,150.4,153.9,145.5,153.9z"/>
		</g>
	</g>
	<g class="st0">
		<g>
			<path class="st1" d="M75.1,44.5l-3.9-0.7c-0.4-1.3-0.9-2.6-1.6-3.8l2.3-3.2c1-1.4,0.8-3.3-0.4-4.5L68,28.8c-0.7-0.7-1.5-1-2.4-1
				c-0.7,0-1.4,0.2-2,0.6l-3.2,2.3c-1.3-0.7-2.6-1.2-3.9-1.6l-0.7-3.9c-0.3-1.7-1.7-2.9-3.4-2.9h-4.9c-1.7,0-3.1,1.2-3.4,2.9l-0.7,4
				c-1.3,0.4-2.6,0.9-3.8,1.6l-3.2-2.3c-0.6-0.4-1.3-0.6-2-0.6c-0.9,0-1.8,0.4-2.4,1l-3.5,3.5c-1.2,1.2-1.4,3.1-0.4,4.5l2.3,3.3
				c-0.6,1.2-1.2,2.5-1.6,3.8l-3.9,0.7C23.2,44.9,22,46.3,22,48v4.9c0,1.7,1.2,3.1,2.9,3.4l4,0.7c0.4,1.3,0.9,2.6,1.6,3.8L28.2,64
				c-1,1.4-0.8,3.3,0.4,4.5l3.5,3.5c0.7,0.7,1.5,1,2.4,1c0.7,0,1.4-0.2,2-0.6l3.3-2.3c1.2,0.6,2.4,1.1,3.7,1.5l0.7,3.9
				c0.3,1.7,1.7,2.9,3.4,2.9h4.9c1.7,0,3.1-1.2,3.4-2.9l0.7-3.9c1.3-0.4,2.6-0.9,3.8-1.6l3.2,2.3c0.6,0.4,1.3,0.6,2,0.6l0,0
				c0.9,0,1.8-0.4,2.4-1l3.5-3.5c1.2-1.2,1.4-3.1,0.4-4.5l-2.3-3.2c0.6-1.2,1.2-2.5,1.6-3.8l3.9-0.7c1.7-0.3,2.9-1.7,2.9-3.4v-4.9
				C77.9,46.2,76.7,44.7,75.1,44.5z M74.8,52.8c0,0.2-0.1,0.3-0.3,0.3l-4.9,0.8c-0.6,0.1-1.1,0.6-1.3,1.2c-0.4,1.7-1.1,3.4-2,4.9
				c-0.3,0.5-0.3,1.2,0.1,1.7l2.9,4.1c0.1,0.1,0.1,0.3,0,0.4l-3.5,3.5c-0.1,0.1-0.2,0.1-0.2,0.1c-0.1,0-0.1,0-0.2-0.1l-4.1-2.9
				c-0.5-0.4-1.2-0.4-1.7-0.1c-1.5,0.9-3.2,1.6-4.9,2c-0.6,0.2-1.1,0.7-1.2,1.3l-0.8,4.9c0,0.2-0.2,0.3-0.3,0.3h-4.9
				c-0.2,0-0.3-0.1-0.3-0.3L46.4,70c-0.1-0.6-0.6-1.1-1.2-1.3c-1.7-0.4-3.3-1.1-4.8-2c-0.2-0.1-0.5-0.2-0.8-0.2
				c-0.3,0-0.6,0.1-0.9,0.3l-4.1,2.9c-0.1,0-0.1,0.1-0.2,0.1c0,0-0.1,0-0.2-0.1l-3.5-3.5c-0.1-0.1-0.1-0.3,0-0.4l2.9-4
				c0.4-0.5,0.4-1.2,0.1-1.7c-0.9-1.5-1.6-3.2-2.1-4.9c-0.2-0.6-0.7-1.1-1.3-1.2l-4.9-0.8c-0.2,0-0.3-0.2-0.3-0.3V48
				c0-0.2,0.1-0.3,0.3-0.3l4.9-0.8c0.6-0.1,1.1-0.6,1.3-1.2c0.4-1.7,1.1-3.4,2-4.9c0.3-0.5,0.3-1.2-0.1-1.7L30.6,35
				c-0.1-0.1-0.1-0.3,0-0.4l3.5-3.5c0.1-0.1,0.2-0.1,0.2-0.1c0.1,0,0.1,0,0.2,0.1l4,2.9c0.5,0.4,1.2,0.4,1.7,0.1
				c1.5-0.9,3.2-1.6,4.9-2.1c0.6-0.2,1.1-0.7,1.2-1.3l0.8-4.9c0-0.2,0.2-0.3,0.3-0.3h4.9c0.2,0,0.3,0.1,0.3,0.3l0.8,4.9
				c0.1,0.6,0.6,1.1,1.2,1.3c1.8,0.4,3.4,1.1,5,2.1c0.5,0.3,1.2,0.3,1.7-0.1l4-2.9c0.1,0,0.1-0.1,0.2-0.1c0,0,0.1,0,0.2,0.1l3.5,3.5
				c0.1,0.1,0.1,0.3,0,0.4L66.4,39c-0.4,0.5-0.4,1.2-0.1,1.7c0.9,1.5,1.6,3.2,2,4.9c0.2,0.6,0.7,1.1,1.3,1.2l4.9,0.8
				c0.2,0,0.3,0.2,0.3,0.3L74.8,52.8L74.8,52.8z"/>
			<path class="st1" d="M50,38.3c-6.7,0-12.1,5.4-12.1,12.1S43.3,62.4,50,62.4S62,57,62,50.3S56.6,38.3,50,38.3z M50,59.2
				c-4.9,0-8.9-4-8.9-8.9s4-8.9,8.9-8.9s8.9,4,8.9,8.9S54.9,59.2,50,59.2z"/>
		</g>
	</g>
	<g class="st0">
		<g>
			<path class="st1" d="M170.6,44.5l-3.9-0.7c-0.4-1.3-0.9-2.6-1.6-3.8l2.3-3.2c1-1.4,0.8-3.3-0.4-4.5l-3.5-3.5
				c-0.7-0.7-1.5-1-2.4-1c-0.7,0-1.4,0.2-2,0.6l-3.2,2.3c-1.3-0.7-2.6-1.2-3.9-1.6l-0.7-3.9c-0.3-1.7-1.7-2.9-3.4-2.9H143
				c-1.7,0-3.1,1.2-3.4,2.9l-0.7,4c-1.3,0.4-2.6,0.9-3.8,1.6l-3.2-2.3c-0.6-0.4-1.3-0.6-2-0.6c-0.9,0-1.8,0.4-2.4,1l-3.5,3.5
				c-1.2,1.2-1.4,3.1-0.4,4.5l2.3,3.3c-0.6,1.2-1.2,2.5-1.6,3.8l-3.9,0.7c-1.7,0.3-2.9,1.7-2.9,3.4v4.9c0,1.7,1.2,3.1,2.9,3.4l4,0.7
				c0.4,1.3,0.9,2.6,1.6,3.8l-2.3,3.2c-1,1.4-0.8,3.3,0.4,4.5l3.5,3.5c0.7,0.7,1.5,1,2.4,1c0.7,0,1.4-0.2,2-0.6l3.3-2.3
				c1.2,0.6,2.4,1.1,3.7,1.5l0.7,3.9c0.3,1.7,1.7,2.9,3.4,2.9h4.9c1.7,0,3.1-1.2,3.4-2.9l0.7-3.9c1.3-0.4,2.6-0.9,3.8-1.6l3.2,2.3
				c0.6,0.4,1.3,0.6,2,0.6l0,0c0.9,0,1.8-0.4,2.4-1l3.5-3.5c1.2-1.2,1.4-3.1,0.4-4.5l-2.3-3.2c0.6-1.2,1.2-2.5,1.6-3.8l3.9-0.7
				c1.7-0.3,2.9-1.7,2.9-3.4v-4.9C173.5,46.2,172.3,44.7,170.6,44.5z M170.4,52.8c0,0.2-0.1,0.3-0.3,0.3l-4.9,0.8
				c-0.6,0.1-1.1,0.6-1.3,1.2c-0.4,1.7-1.1,3.4-2,4.9c-0.3,0.5-0.3,1.2,0.1,1.7l2.9,4.1c0.1,0.1,0.1,0.3,0,0.4l-3.5,3.5
				c-0.1,0.1-0.2,0.1-0.2,0.1c-0.1,0-0.1,0-0.2-0.1l-4.1-2.9c-0.5-0.4-1.2-0.4-1.7-0.1c-1.5,0.9-3.2,1.6-4.9,2
				c-0.6,0.2-1.1,0.7-1.2,1.3l-0.8,4.9c0,0.2-0.2,0.3-0.3,0.3h-4.9c-0.2,0-0.3-0.1-0.3-0.3L142,70c-0.1-0.6-0.6-1.1-1.2-1.3
				c-1.7-0.4-3.3-1.1-4.8-2c-0.2-0.1-0.5-0.2-0.8-0.2c-0.3,0-0.6,0.1-0.9,0.3l-4.1,2.9c-0.1,0-0.1,0.1-0.2,0.1c0,0-0.1,0-0.2-0.1
				l-3.5-3.5c-0.1-0.1-0.1-0.3,0-0.4l2.9-4c0.4-0.5,0.4-1.2,0.1-1.7c-0.9-1.5-1.6-3.2-2.1-4.9c-0.2-0.6-0.7-1.1-1.3-1.2l-4.9-0.8
				c-0.2,0-0.3-0.2-0.3-0.3V48c0-0.2,0.1-0.3,0.3-0.3l4.9-0.8c0.6-0.1,1.1-0.6,1.3-1.2c0.4-1.7,1.1-3.4,2-4.9
				c0.3-0.5,0.3-1.2-0.1-1.7l-2.9-4.1c-0.1-0.1-0.1-0.3,0-0.4l3.5-3.5c0.1-0.1,0.2-0.1,0.2-0.1c0.1,0,0.1,0,0.2,0.1l4,2.9
				c0.5,0.4,1.2,0.4,1.7,0.1c1.5-0.9,3.2-1.6,4.9-2.1c0.6-0.2,1.1-0.7,1.2-1.3l0.8-4.9c0-0.2,0.2-0.3,0.3-0.3h4.9
				c0.2,0,0.3,0.1,0.3,0.3l0.8,4.9c0.1,0.6,0.6,1.1,1.2,1.3c1.8,0.4,3.4,1.1,5,2.1c0.5,0.3,1.2,0.3,1.7-0.1l4-2.9
				c0.1,0,0.1-0.1,0.2-0.1c0,0,0.1,0,0.2,0.1l3.5,3.5c0.1,0.1,0.1,0.3,0,0.4L162,39c-0.4,0.5-0.4,1.2-0.1,1.7c0.9,1.5,1.6,3.2,2,4.9
				c0.2,0.6,0.7,1.1,1.3,1.2l4.9,0.8c0.2,0,0.3,0.2,0.3,0.3L170.4,52.8L170.4,52.8z"/>
			<path class="st1" d="M145.5,38.2c-6.7,0-12.1,5.4-12.1,12.1s5.4,12.1,12.1,12.1s12.1-5.4,12.1-12.1S152.2,38.2,145.5,38.2z
				 M145.5,59.2c-4.9,0-8.9-4-8.9-8.9s4-8.9,8.9-8.9c4.9,0,8.9,4,8.9,8.9S150.5,59.2,145.5,59.2z"/>
		</g>
	</g>
</g>
<g id="Слой_2">
</g>
</svg>
