<?xml version="1.0" encoding="utf-8"?>
<!-- Generator: Adobe Illustrator 24.0.2, SVG Export Plug-In . SVG Version: 6.00 Build 0)  -->
<svg version="1.1" id="Слой_1" xmlns="http://www.w3.org/2000/svg" xmlns:xlink="http://www.w3.org/1999/xlink" x="0px" y="0px"
	 viewBox="0 0 1000 1000" style="enable-background:new 0 0 1000 1000;" xml:space="preserve">
<style type="text/css">
	.st0{opacity:0.1;}
</style>
<path class="st0" d="M377.8,204.2l-48.4-59.9c-3.1-3.8-7.7-5.6-11.5-4.4l-138.1,42c-1.8,0.6-3.3,1.8-4.3,3.4l-70,126.2
	c-1.9,3.5-1.2,8.4,1.9,12.2c3.1,3.8,7.7,5.6,11.5,4.4l69.1-21l26.4,32.7c0.1,0.1,0.2,0.3,0.4,0.4c7.1,8.3,19.9,11.2,36.3,8.1
	c15-2.8,30.3-10.1,43.1-20.4c12.8-10.4,23.1-23.8,29-37.9c6.6-15.6,6.3-29-0.6-37.6l-26.4-32.7l29-52.2l38.8,48
	c-3.7,8.6-1.8,20.4,5.8,29.7l23.9,29.5c3.9,4.8,10.1,6.2,14,3.1l22.1-17.8c3.8-3.1,3.8-9.5-0.1-14.3l-23.9-29.5
	C398.1,206.8,387.1,202.4,377.8,204.2z M303.6,281.3c-5.1,10.8-13.5,21.1-23.4,29.2c-10,8.1-21.9,14-33.5,16.8
	c-10.2,2.4-16.8,1.5-19,0.6l-21.3-26.3l50.6-15.4c0.9-0.3,1.7-0.7,2.5-1.3c0.7-0.6,1.3-1.3,1.8-2.1l25.6-46.2l21.3,26.4
	C308.6,265.1,308.1,271.8,303.6,281.3z M245.1,267l-108.1,32.8l54.8-98.8l108.1-32.8L245.1,267z M408.6,248.1l-8.2,6.6L383.6,234
	c-2.3-2.8-2.3-6.6-0.1-8.5c2.3-1.8,6-1,8.3,1.8L408.6,248.1z"/>
<path class="st0" d="M856.6,193.2l-48.4-59.9c-3.1-3.8-7.7-5.6-11.5-4.4l-138.1,42c-1.8,0.6-3.3,1.8-4.3,3.4l-70,126.2
	c-1.9,3.5-1.2,8.4,1.9,12.2c3.1,3.8,7.7,5.6,11.5,4.4l69.1-21l26.4,32.7c0.1,0.1,0.2,0.3,0.4,0.4c7.1,8.3,19.9,11.2,36.3,8.1
	c15-2.8,30.3-10.1,43.1-20.4s23.1-23.8,29-37.9c6.6-15.6,6.3-29-0.6-37.6L775,208.7l29-52.2l38.8,48c-3.7,8.6-1.8,20.4,5.8,29.7
	l23.9,29.5c3.9,4.8,10.1,6.2,14,3.1l22.1-17.8c3.8-3.1,3.8-9.5-0.1-14.3l-23.9-29.5C876.9,195.8,865.8,191.4,856.6,193.2z
	 M782.4,270.3c-5.1,10.8-13.5,21.1-23.4,29.2c-10,8.1-21.9,14-33.5,16.8c-10.2,2.4-16.8,1.5-19,0.6l-21.3-26.3l50.6-15.4
	c0.9-0.3,1.7-0.7,2.5-1.3s1.3-1.3,1.8-2.1l25.6-46.2l21.3,26.4C787.4,254.1,786.9,260.8,782.4,270.3z M723.8,256l-108.1,32.8
	l54.8-98.8l108.1-32.8L723.8,256z M887.4,237.1l-8.2,6.6L862.4,223c-2.3-2.8-2.3-6.6-0.1-8.5c2.3-1.8,6-1,8.3,1.8L887.4,237.1z"/>
<path class="st0" d="M394.1,712.1l-48.4-59.9c-3.1-3.8-7.7-5.6-11.5-4.4l-138.1,42c-1.8,0.6-3.3,1.8-4.3,3.4l-70,126.2
	c-1.9,3.5-1.2,8.4,1.9,12.2c3.1,3.8,7.7,5.6,11.5,4.4l69.1-21l26.4,32.7c0.1,0.1,0.2,0.3,0.4,0.4c7.1,8.3,19.9,11.2,36.3,8.1
	c15-2.8,30.3-10.1,43.1-20.4c12.8-10.4,23.1-23.8,29-37.9c6.6-15.6,6.3-29-0.6-37.6l-26.4-32.7l29-52.2l38.8,48
	c-3.7,8.6-1.8,20.4,5.8,29.7l23.9,29.5c3.9,4.8,10.1,6.2,14,3.1l22.1-17.8c3.8-3.1,3.8-9.5-0.1-14.3L422,724
	C414.4,714.7,403.3,710.3,394.1,712.1z M319.9,789.2c-5.1,10.8-13.5,21.1-23.4,29.2c-10,8.1-21.9,14-33.5,16.8
	c-10.2,2.4-16.8,1.5-19,0.6l-21.3-26.3l50.6-15.4c0.9-0.3,1.7-0.7,2.5-1.3c0.7-0.6,1.3-1.3,1.8-2.1l25.6-46.2l21.3,26.4
	C324.9,773,324.4,779.7,319.9,789.2z M261.3,774.9l-108.1,32.8l54.8-98.8l108.1-32.8L261.3,774.9z M424.9,756l-8.2,6.6l-16.8-20.8
	c-2.3-2.8-2.3-6.6-0.1-8.5c2.3-1.8,6-1,8.3,1.8L424.9,756z"/>
<path class="st0" d="M856.6,699.6l-48.4-59.9c-3.1-3.8-7.7-5.6-11.5-4.4l-138.1,42c-1.8,0.6-3.3,1.8-4.3,3.4l-70,126.2
	c-1.9,3.5-1.2,8.4,1.9,12.2c3.1,3.8,7.7,5.6,11.5,4.4l69.1-21l26.4,32.7c0.1,0.1,0.2,0.3,0.4,0.4c7.1,8.3,19.9,11.2,36.3,8.1
	c15-2.8,30.3-10.1,43.1-20.4c12.8-10.4,23.1-23.8,29-37.9c6.6-15.6,6.3-29-0.6-37.6L775,715l29-52.2l38.8,48
	c-3.7,8.6-1.8,20.4,5.8,29.7l23.9,29.5c3.9,4.8,10.1,6.2,14,3.1l22.1-17.8c3.8-3.1,3.8-9.5-0.1-14.3l-23.9-29.5
	C876.9,702.1,865.8,697.8,856.6,699.6z M782.4,776.6c-5.1,10.8-13.5,21.1-23.4,29.2c-10,8.1-21.9,14-33.5,16.8
	c-10.2,2.4-16.8,1.5-19,0.6l-21.3-26.3l50.6-15.4c0.9-0.3,1.7-0.7,2.5-1.3c0.7-0.6,1.3-1.3,1.8-2.1l25.6-46.2l21.3,26.4
	C787.4,760.5,786.9,767.2,782.4,776.6z M723.8,762.4l-108.1,32.8l54.8-98.8l108.1-32.8L723.8,762.4z M887.4,743.5l-8.2,6.6
	l-16.8-20.8c-2.3-2.8-2.3-6.6-0.1-8.5c2.3-1.8,6-1,8.3,1.8L887.4,743.5z"/>
</svg>
