<?xml version="1.0" encoding="utf-8"?>
<!-- Generator: Adobe Illustrator 24.0.2, SVG Export Plug-In . SVG Version: 6.00 Build 0)  -->
<svg version="1.1" id="Слой_1" xmlns="http://www.w3.org/2000/svg" xmlns:xlink="http://www.w3.org/1999/xlink" x="0px" y="0px"
	 viewBox="0 0 1695.4 605.6" style="enable-background:new 0 0 1695.4 605.6;" xml:space="preserve">
<style type="text/css">
	.st0{fill:#FFFFFF;stroke:#602DF9;stroke-width:10;stroke-miterlimit:10;}
	.st1{fill:#FFFFFF;}
	.st2{fill:url(#SVGID_1_);}
	.st3{display:none;}
	.st4{enable-background:new    ;}
	.st5{fill:none;}
</style>
<g>
	<path class="st0" d="M293.4,3.7C133.6,3.7,4.1,133.2,4.1,293c0,61.8,19.4,119,52.4,166l-6.2,80.6l82-6.3c46,30.9,101.5,49,161.1,49
		c159.8,0,289.3-129.5,289.3-289.3S453.2,3.7,293.4,3.7z M374.1,378c-14.8,9.8-23.7,22.6-29.1,32.5c-19-4.7-35.2-5.9-46.8-6
		c-17-0.1-39.1-0.1-61.7,12.1c-1.1,0.6-3,1.7-5.5,3.2c-17.8,11-27.9,25-35.9,36.3c-1.9,2.8-4.8,7-8,12.3c-1.6-4.8-3.3-9.6-5-14.4
		c-25.4-72.8-49.5-145.4-72.4-217.8c5.9-11.4,14.7-24.3,28-35.7c50-42.7,119.4-26,129.3-23.5c8.2-8.7,32.2-31.8,71.2-39.4
		c32.2-6.3,58.2,1.1,69.8,5.2c25,78.1,50,156.1,75,234.2C479,375,420.5,346.9,374.1,378z"/>
	<path class="st1" d="M338.2,137.6c-39,7.6-63,30.7-71.2,39.4c-9.9-2.5-79.3-19.2-129.3,23.5c-13.3,11.4-22.1,24.3-28,35.7
		c22.9,72.4,47,145,72.4,217.8c1.7,4.8,3.4,9.6,5,14.4c3.2-5.3,6.1-9.5,8-12.3c8-11.3,18.1-25.3,35.9-36.3c2.5-1.5,4.4-2.6,5.5-3.2
		c22.6-12.2,44.7-12.2,61.7-12.1c11.6,0.1,27.8,1.3,46.8,6c5.4-9.9,14.3-22.7,29.1-32.5c46.4-31.1,104.9-3,108.9-1
		c-25-78.1-50-156.1-75-234.2C396.4,138.7,370.4,131.3,338.2,137.6z M149.5,261.9c-1.5,2.2-4.1,3.3-6.6,3.3c-1.8,0-3.6-0.6-5.2-1.8
		c-3.7-2.9-4.4-8.2-1.6-11.9c3.3-4.3,6.9-8.3,10.8-12c38.1-35.8,95.1-32.1,125.7-26.7c4.6,0.8,7.7,5.2,6.9,9.9
		c-0.8,4.6-5.2,7.7-9.9,6.9c-27.4-4.9-78.4-8.4-111.1,22.4C155.3,255,152.3,258.4,149.5,261.9z M171.5,327.8c-1.5,2.2-4,3.4-6.6,3.4
		c-1.8,0-3.6-0.6-5.2-1.8c-3.7-2.8-4.4-8.2-1.6-11.9c3.3-4.3,6.9-8.3,10.8-12c38.1-35.8,95.1-32.1,125.7-26.7
		c4.6,0.8,7.7,5.2,6.9,9.9c-0.8,4.6-5.2,7.7-9.9,6.9c-27.4-4.9-78.4-8.4-111.1,22.3C177.3,320.9,174.3,324.3,171.5,327.8z
		 M324.2,354.5c-0.8,4.6-5.2,7.7-9.8,6.9c-27.4-4.8-78.4-8.4-111.1,22.4c-3.2,3-6.2,6.4-9,9.9c-1.7,2.3-4.2,3.4-6.7,3.4
		c-1.8,0-3.6-0.6-5.2-1.8c-3.7-2.8-4.4-8.2-1.6-11.9c3.3-4.3,6.9-8.3,10.8-12c38.1-35.8,95.1-32.1,125.7-26.7
		C321.9,345.5,325,349.9,324.2,354.5z"/>
	
		<linearGradient id="SVGID_1_" gradientUnits="userSpaceOnUse" x1="109.7" y1="778.244" x2="483" y2="778.244" gradientTransform="matrix(1 0 0 1 0 -476.4655)">
		<stop  offset="0" style="stop-color:#815CF8"/>
		<stop  offset="1" style="stop-color:#4D12F9"/>
	</linearGradient>
	<path class="st2" d="M338.2,137.6c-39,7.6-63,30.7-71.2,39.4c-9.9-2.5-79.3-19.2-129.3,23.5c-13.3,11.4-22.1,24.3-28,35.7
		c22.9,72.4,47,145,72.4,217.8c1.7,4.8,3.4,9.6,5,14.4c3.2-5.3,6.1-9.5,8-12.3c8-11.3,18.1-25.3,35.9-36.3c2.5-1.5,4.4-2.6,5.5-3.2
		c22.6-12.2,44.7-12.2,61.7-12.1c11.6,0.1,27.8,1.3,46.8,6c5.4-9.9,14.3-22.7,29.1-32.5c46.4-31.1,104.9-3,108.9-1
		c-25-78.1-50-156.1-75-234.2C396.4,138.7,370.4,131.3,338.2,137.6z M149.5,261.9c-1.5,2.2-4.1,3.3-6.6,3.3c-1.8,0-3.6-0.6-5.2-1.8
		c-3.7-2.9-4.4-8.2-1.6-11.9c3.3-4.3,6.9-8.3,10.8-12c38.1-35.8,95.1-32.1,125.7-26.7c4.6,0.8,7.7,5.2,6.9,9.9
		c-0.8,4.6-5.2,7.7-9.9,6.9c-27.4-4.9-78.4-8.4-111.1,22.4C155.3,255,152.3,258.4,149.5,261.9z M171.5,327.8c-1.5,2.2-4,3.4-6.6,3.4
		c-1.8,0-3.6-0.6-5.2-1.8c-3.7-2.8-4.4-8.2-1.6-11.9c3.3-4.3,6.9-8.3,10.8-12c38.1-35.8,95.1-32.1,125.7-26.7
		c4.6,0.8,7.7,5.2,6.9,9.9c-0.8,4.6-5.2,7.7-9.9,6.9c-27.4-4.9-78.4-8.4-111.1,22.3C177.3,320.9,174.3,324.3,171.5,327.8z
		 M324.2,354.5c-0.8,4.6-5.2,7.7-9.8,6.9c-27.4-4.8-78.4-8.4-111.1,22.4c-3.2,3-6.2,6.4-9,9.9c-1.7,2.3-4.2,3.4-6.7,3.4
		c-1.8,0-3.6-0.6-5.2-1.8c-3.7-2.8-4.4-8.2-1.6-11.9c3.3-4.3,6.9-8.3,10.8-12c38.1-35.8,95.1-32.1,125.7-26.7
		C321.9,345.5,325,349.9,324.2,354.5z"/>
	<path class="st1" d="M317.3,344.7c-30.6-5.4-87.6-9.1-125.7,26.7c-3.9,3.7-7.5,7.7-10.8,12c-2.8,3.7-2.1,9.1,1.6,11.9
		c1.6,1.2,3.4,1.8,5.2,1.8c2.5,0,5-1.1,6.7-3.4c2.8-3.5,5.8-6.9,9-9.9C236,353,287,356.6,314.4,361.4c4.6,0.8,9-2.3,9.8-6.9
		C325,349.9,321.9,345.5,317.3,344.7z"/>
	<path class="st1" d="M291.6,295.6c4.7,0.8,9.1-2.3,9.9-6.9c0.8-4.7-2.3-9.1-6.9-9.9c-30.6-5.4-87.6-9.1-125.7,26.7
		c-3.9,3.7-7.5,7.7-10.8,12c-2.8,3.7-2.1,9.1,1.6,11.9c1.6,1.2,3.4,1.8,5.2,1.8c2.6,0,5.1-1.2,6.6-3.4c2.8-3.5,5.8-6.9,9-9.9
		C213.2,287.2,264.2,290.7,291.6,295.6z"/>
	<path class="st1" d="M269.6,229.6c4.7,0.8,9.1-2.3,9.9-6.9c0.8-4.7-2.3-9.1-6.9-9.9c-30.6-5.4-87.6-9.1-125.7,26.7
		c-3.9,3.7-7.5,7.7-10.8,12c-2.8,3.7-2.1,9,1.6,11.9c1.6,1.2,3.4,1.8,5.2,1.8c2.5,0,5.1-1.1,6.6-3.3c2.8-3.5,5.8-6.9,9-9.9
		C191.2,221.2,242.2,224.7,269.6,229.6z"/>
</g>
<g id="Слой_3" class="st3">
	
		<image style="display:inline;overflow:visible;opacity:0.47;enable-background:new    ;" width="806" height="797" xlink:href="C8A93096.jpeg"  transform="matrix(1.2403 0 0 1.2403 -210.643 -205.2328)">
	</image>
</g>
<g class="st4">
	<path class="st1" d="M772.2,237.5h-49.4v-12.8h113.6v12.8h-49.4v127.7h-14.9V237.5z"/>
	<path class="st1" d="M938,316.8h-88.3c0.8,11,5,19.8,12.6,26.6c7.6,6.8,17.3,10.1,28.9,10.1c6.6,0,12.6-1.2,18.1-3.5
		c5.5-2.3,10.2-5.8,14.3-10.3l8,9.2c-4.7,5.6-10.5,9.9-17.6,12.8c-7,2.9-14.8,4.4-23.2,4.4c-10.8,0-20.4-2.3-28.8-6.9
		c-8.4-4.6-14.9-11-19.6-19.2c-4.7-8.2-7-17.4-7-27.7c0-10.3,2.2-19.5,6.7-27.7c4.5-8.2,10.6-14.5,18.5-19.1
		c7.8-4.5,16.6-6.8,26.4-6.8c9.8,0,18.5,2.3,26.3,6.8c7.8,4.6,13.8,10.9,18.3,19c4.4,8.1,6.6,17.4,6.6,27.8L938,316.8z M861.5,280.8
		c-6.9,6.5-10.8,15-11.7,25.4h74.9c-0.9-10.4-4.9-18.9-11.7-25.4c-6.9-6.5-15.5-9.7-25.8-9.7C876.9,271,868.4,274.3,861.5,280.8z"/>
	<path class="st1" d="M1033,269.1c7.4,6.9,11,17.1,11,30.6v65.4h-13.6v-16.5c-3.2,5.5-7.9,9.8-14.2,12.8c-6.2,3.1-13.6,4.6-22.2,4.6
		c-11.8,0-21.1-2.8-28.1-8.4c-7-5.6-10.4-13-10.4-22.3c0-9,3.2-16.2,9.7-21.7c6.5-5.5,16.8-8.2,31-8.2h33.5v-6.4
		c0-9.1-2.5-16-7.6-20.8c-5.1-4.7-12.5-7.1-22.3-7.1c-6.7,0-13.1,1.1-19.3,3.3c-6.2,2.2-11.4,5.3-15.9,9.1l-6.4-10.6
		c5.3-4.5,11.8-8.1,19.3-10.5c7.5-2.5,15.4-3.7,23.7-3.7C1015,258.8,1025.6,262.3,1033,269.1z M1016.9,349.4c5.8-3.7,10-9,12.8-16
		v-17.3h-33.1c-18.1,0-27.1,6.3-27.1,18.9c0,6.2,2.3,11,7,14.6c4.7,3.5,11.2,5.3,19.7,5.3C1004.3,354.9,1011.2,353.1,1016.9,349.4z"
		/>
	<path class="st1" d="M1098.9,359.4c-8.2-4.5-14.7-10.9-19.4-19.2c-4.7-8.2-7-17.5-7-27.8c0-10.3,2.3-19.5,7-27.7
		c4.7-8.2,11.1-14.5,19.4-19.1c8.2-4.5,17.6-6.8,28-6.8c9.1,0,17.2,1.8,24.4,5.3c7.2,3.5,12.8,8.7,17,15.6l-10.6,7.2
		c-3.5-5.2-7.9-9.1-13.2-11.7c-5.4-2.6-11.2-3.9-17.5-3.9c-7.6,0-14.5,1.7-20.6,5.1c-6.1,3.4-10.8,8.3-14.3,14.6
		c-3.4,6.3-5.1,13.4-5.1,21.5c0,8.2,1.7,15.4,5.1,21.6s8.2,11,14.3,14.5c6.1,3.4,12.9,5.1,20.6,5.1c6.3,0,12.1-1.3,17.5-3.8
		c5.4-2.5,9.8-6.4,13.2-11.6l10.6,7.2c-4.1,6.8-9.8,12-17.1,15.6c-7.2,3.5-15.3,5.3-24.3,5.3
		C1116.5,366.2,1107.1,363.9,1098.9,359.4z"/>
	<path class="st1" d="M1279.9,270.3c7.8,7.7,11.7,18.9,11.7,33.6v61.2h-14.3v-59.8c0-11-2.7-19.3-8.2-25.1
		c-5.5-5.8-13.3-8.6-23.5-8.6c-11.4,0-20.4,3.4-27,10.1c-6.6,6.8-9.9,16.1-9.9,28v55.4h-14.3V216.3h14.3v61.8
		c3.9-6.2,9.2-10.9,16.1-14.3c6.8-3.3,14.7-5,23.5-5C1261.6,258.8,1272.1,262.7,1279.9,270.3z"/>
	<path class="st1" d="M1322.6,304.6h52.6V317h-52.6V304.6z"/>
	<path class="st1" d="M1410.1,224.7h14.9v140.5h-14.9V224.7z"/>
	<path class="st1" d="M1553.1,270.3c7.8,7.7,11.7,18.9,11.7,33.6v61.2h-14.3v-59.8c0-11-2.7-19.3-8.2-25.1
		c-5.5-5.8-13.3-8.6-23.5-8.6c-11.4,0-20.4,3.4-27,10.1c-6.6,6.8-9.9,16.1-9.9,28v55.4h-14.3V259.6h13.6v19.5
		c3.9-6.4,9.3-11.4,16.2-15c6.9-3.5,14.9-5.3,24-5.3C1534.7,258.8,1545.3,262.7,1553.1,270.3z"/>
</g>
<polygon class="st5" points="1095.9,-306 1051.4,-306 1051.4,-306 "/>
</svg>
