<?xml version="1.0" encoding="utf-8"?>
<!-- Generator: Adobe Illustrator 24.0.2, SVG Export Plug-In . SVG Version: 6.00 Build 0)  -->
<svg version="1.1" id="Слой_1" xmlns="http://www.w3.org/2000/svg" xmlns:xlink="http://www.w3.org/1999/xlink" x="0px" y="0px"
	 viewBox="0 0 578.7 578.4" style="enable-background:new 0 0 578.7 578.4;" xml:space="preserve">
<style type="text/css">
	.st0{display:none;fill:url(#SVGID_1_);}
	.st1{fill:#FFFFFF;}
	.st2{fill:url(#SVGID_2_);}
	.st3{display:none;fill:none;stroke:#FF00FF;stroke-width:4;stroke-miterlimit:10;}
	.st4{display:none;}
</style>
<g id="Background">
	
		<linearGradient id="SVGID_1_" gradientUnits="userSpaceOnUse" x1="-209.2295" y1="793.3467" x2="727.2958" y2="-143.1786" gradientTransform="matrix(1 0 0 -1 0 589.5345)">
		<stop  offset="0.2346" style="stop-color:#815CF8"/>
		<stop  offset="1" style="stop-color:#4D12F9"/>
	</linearGradient>
	<rect x="-210.6" y="-205.2" class="st0" width="1000" height="1000"/>
	<g id="Book">
		<g id="Слой_2_1_">
			<polygon class="st1" points="46.3,535.6 152.3,527.5 54.4,429.6 			"/>
			<circle class="st1" cx="289.4" cy="289" r="289.3"/>
			
				<linearGradient id="SVGID_2_" gradientUnits="userSpaceOnUse" x1="105.64" y1="291.7043" x2="478.93" y2="291.7043" gradientTransform="matrix(1 0 0 -1 0 589.5345)">
				<stop  offset="0" style="stop-color:#815CF8"/>
				<stop  offset="1" style="stop-color:#4D12F9"/>
			</linearGradient>
			<path class="st2" d="M191.1,452.1c8-11.3,18.1-25.3,35.9-36.3c2.5-1.5,4.4-2.6,5.5-3.2c22.6-12.2,44.7-12.2,61.7-12.1
				c11.6,0.1,27.8,1.3,46.8,6c5.4-9.9,14.3-22.7,29.1-32.5c46.4-31.1,104.9-3,108.9-1c-25-78.1-50-156.1-75-234.2
				c-11.6-4.1-37.6-11.5-69.8-5.2c-39,7.6-63,30.7-71.2,39.4c-9.9-2.5-79.3-19.2-129.3,23.5c-13.3,11.4-22.1,24.3-28,35.7
				c22.9,72.4,47,145,72.4,217.8c1.7,4.8,3.4,9.6,5,14.4C186.3,459.1,189.2,454.9,191.1,452.1z"/>
			<g>
				<path class="st1" d="M183.6,393.1c-1.8,0-3.6-0.6-5.2-1.8c-3.7-2.8-4.4-8.2-1.6-11.9c3.3-4.3,6.9-8.3,10.8-12
					c38.1-35.8,95.1-32.1,125.7-26.7c4.6,0.8,7.7,5.2,6.9,9.8s-5.2,7.7-9.8,6.9c-27.4-4.8-78.4-8.4-111.1,22.4c-3.2,3-6.2,6.4-9,9.9
					C188.6,392,186.1,393.1,183.6,393.1z"/>
			</g>
			<g>
				<path class="st1" d="M160.9,327.2c-1.8,0-3.6-0.6-5.2-1.8c-3.7-2.8-4.4-8.2-1.6-11.9c3.3-4.3,6.9-8.3,10.8-12
					c38.1-35.8,95.1-32.1,125.7-26.7c4.6,0.8,7.7,5.2,6.9,9.9c-0.8,4.6-5.2,7.7-9.9,6.9c-27.4-4.9-78.4-8.4-111.1,22.3
					c-3.2,3-6.2,6.4-9,9.9C166,326,163.5,327.2,160.9,327.2z"/>
			</g>
			<g>
				<path class="st1" d="M138.9,261.2c-1.8,0-3.6-0.6-5.2-1.8c-3.7-2.9-4.4-8.2-1.6-11.9c3.3-4.3,6.9-8.3,10.8-12
					c38.1-35.8,95.1-32.1,125.7-26.7c4.6,0.8,7.7,5.2,6.9,9.9c-0.8,4.6-5.2,7.7-9.9,6.9c-27.4-4.9-78.4-8.4-111.1,22.4
					c-3.2,3-6.2,6.4-9,9.9C144,260.1,141.4,261.2,138.9,261.2z"/>
			</g>
			<path class="st3" d="M340.9,406.3c-25.9-77.6-51.9-155.1-77.8-232.7"/>
		</g>
	</g>
</g>
<g id="Слой_3" class="st4">
	
		<image style="display:inline;overflow:visible;opacity:0.47;enable-background:new    ;" width="806" height="797" xlink:href="C8A93096.jpeg"  transform="matrix(1.2403 0 0 1.2403 -210.643 -205.2328)">
	</image>
</g>
</svg>
