<?xml version="1.0" encoding="utf-8"?>
<!-- Generator: Adobe Illustrator 24.0.2, SVG Export Plug-In . SVG Version: 6.00 Build 0)  -->
<svg version="1.1" id="Слой_1" xmlns="http://www.w3.org/2000/svg" xmlns:xlink="http://www.w3.org/1999/xlink" x="0px" y="0px"
	 viewBox="0 0 1695.4 605.6" style="enable-background:new 0 0 1695.4 605.6;" xml:space="preserve">
<style type="text/css">
	.st0{fill:#FFFFFF;stroke:#602DF9;stroke-width:10;stroke-miterlimit:10;}
	.st1{fill:#FFFFFF;}
	.st2{fill:url(#SVGID_1_);}
	.st3{display:none;}
	.st4{fill:#602DF9;}
	.st5{font-family:'Montserrat';}
	.st6{font-size:200.7135px;}
	.st7{fill:none;}
</style>
<g>
	<path class="st0" d="M293.4,3.7C133.6,3.7,4.1,133.2,4.1,293c0,61.8,19.4,119,52.4,166l-6.2,80.6l82-6.3c46,30.9,101.5,49,161.1,49
		c159.8,0,289.3-129.5,289.3-289.3S453.2,3.7,293.4,3.7z M374.1,378c-14.8,9.8-23.7,22.6-29.1,32.5c-19-4.7-35.2-5.9-46.8-6
		c-17-0.1-39.1-0.1-61.7,12.1c-1.1,0.6-3,1.7-5.5,3.2c-17.8,11-27.9,25-35.9,36.3c-1.9,2.8-4.8,7-8,12.3c-1.6-4.8-3.3-9.6-5-14.4
		c-25.4-72.8-49.5-145.4-72.4-217.8c5.9-11.4,14.7-24.3,28-35.7c50-42.7,119.4-26,129.3-23.5c8.2-8.7,32.2-31.8,71.2-39.4
		c32.2-6.3,58.2,1.1,69.8,5.2c25,78.1,50,156.1,75,234.2C479,375,420.5,346.9,374.1,378z"/>
	<path class="st1" d="M338.2,137.6c-39,7.6-63,30.7-71.2,39.4c-9.9-2.5-79.3-19.2-129.3,23.5c-13.3,11.4-22.1,24.3-28,35.7
		c22.9,72.4,47,145,72.4,217.8c1.7,4.8,3.4,9.6,5,14.4c3.2-5.3,6.1-9.5,8-12.3c8-11.3,18.1-25.3,35.9-36.3c2.5-1.5,4.4-2.6,5.5-3.2
		c22.6-12.2,44.7-12.2,61.7-12.1c11.6,0.1,27.8,1.3,46.8,6c5.4-9.9,14.3-22.7,29.1-32.5c46.4-31.1,104.9-3,108.9-1
		c-25-78.1-50-156.1-75-234.2C396.4,138.7,370.4,131.3,338.2,137.6z M149.5,261.9c-1.5,2.2-4.1,3.3-6.6,3.3c-1.8,0-3.6-0.6-5.2-1.8
		c-3.7-2.9-4.4-8.2-1.6-11.9c3.3-4.3,6.9-8.3,10.8-12c38.1-35.8,95.1-32.1,125.7-26.7c4.6,0.8,7.7,5.2,6.9,9.9
		c-0.8,4.6-5.2,7.7-9.9,6.9c-27.4-4.9-78.4-8.4-111.1,22.4C155.3,255,152.3,258.4,149.5,261.9z M171.5,327.8c-1.5,2.2-4,3.4-6.6,3.4
		c-1.8,0-3.6-0.6-5.2-1.8c-3.7-2.8-4.4-8.2-1.6-11.9c3.3-4.3,6.9-8.3,10.8-12c38.1-35.8,95.1-32.1,125.7-26.7
		c4.6,0.8,7.7,5.2,6.9,9.9c-0.8,4.6-5.2,7.7-9.9,6.9c-27.4-4.9-78.4-8.4-111.1,22.3C177.3,320.9,174.3,324.3,171.5,327.8z
		 M324.2,354.5c-0.8,4.6-5.2,7.7-9.8,6.9c-27.4-4.8-78.4-8.4-111.1,22.4c-3.2,3-6.2,6.4-9,9.9c-1.7,2.3-4.2,3.4-6.7,3.4
		c-1.8,0-3.6-0.6-5.2-1.8c-3.7-2.8-4.4-8.2-1.6-11.9c3.3-4.3,6.9-8.3,10.8-12c38.1-35.8,95.1-32.1,125.7-26.7
		C321.9,345.5,325,349.9,324.2,354.5z"/>
	
		<linearGradient id="SVGID_1_" gradientUnits="userSpaceOnUse" x1="109.7" y1="-104.244" x2="483" y2="-104.244" gradientTransform="matrix(1 0 0 -1 0 197.5345)">
		<stop  offset="0" style="stop-color:#815CF8"/>
		<stop  offset="1" style="stop-color:#4D12F9"/>
	</linearGradient>
	<path class="st2" d="M338.2,137.6c-39,7.6-63,30.7-71.2,39.4c-9.9-2.5-79.3-19.2-129.3,23.5c-13.3,11.4-22.1,24.3-28,35.7
		c22.9,72.4,47,145,72.4,217.8c1.7,4.8,3.4,9.6,5,14.4c3.2-5.3,6.1-9.5,8-12.3c8-11.3,18.1-25.3,35.9-36.3c2.5-1.5,4.4-2.6,5.5-3.2
		c22.6-12.2,44.7-12.2,61.7-12.1c11.6,0.1,27.8,1.3,46.8,6c5.4-9.9,14.3-22.7,29.1-32.5c46.4-31.1,104.9-3,108.9-1
		c-25-78.1-50-156.1-75-234.2C396.4,138.7,370.4,131.3,338.2,137.6z M149.5,261.9c-1.5,2.2-4.1,3.3-6.6,3.3c-1.8,0-3.6-0.6-5.2-1.8
		c-3.7-2.9-4.4-8.2-1.6-11.9c3.3-4.3,6.9-8.3,10.8-12c38.1-35.8,95.1-32.1,125.7-26.7c4.6,0.8,7.7,5.2,6.9,9.9
		c-0.8,4.6-5.2,7.7-9.9,6.9c-27.4-4.9-78.4-8.4-111.1,22.4C155.3,255,152.3,258.4,149.5,261.9z M171.5,327.8c-1.5,2.2-4,3.4-6.6,3.4
		c-1.8,0-3.6-0.6-5.2-1.8c-3.7-2.8-4.4-8.2-1.6-11.9c3.3-4.3,6.9-8.3,10.8-12c38.1-35.8,95.1-32.1,125.7-26.7
		c4.6,0.8,7.7,5.2,6.9,9.9c-0.8,4.6-5.2,7.7-9.9,6.9c-27.4-4.9-78.4-8.4-111.1,22.3C177.3,320.9,174.3,324.3,171.5,327.8z
		 M324.2,354.5c-0.8,4.6-5.2,7.7-9.8,6.9c-27.4-4.8-78.4-8.4-111.1,22.4c-3.2,3-6.2,6.4-9,9.9c-1.7,2.3-4.2,3.4-6.7,3.4
		c-1.8,0-3.6-0.6-5.2-1.8c-3.7-2.8-4.4-8.2-1.6-11.9c3.3-4.3,6.9-8.3,10.8-12c38.1-35.8,95.1-32.1,125.7-26.7
		C321.9,345.5,325,349.9,324.2,354.5z"/>
	<path class="st1" d="M317.3,344.7c-30.6-5.4-87.6-9.1-125.7,26.7c-3.9,3.7-7.5,7.7-10.8,12c-2.8,3.7-2.1,9.1,1.6,11.9
		c1.6,1.2,3.4,1.8,5.2,1.8c2.5,0,5-1.1,6.7-3.4c2.8-3.5,5.8-6.9,9-9.9C236,353,287,356.6,314.4,361.4c4.6,0.8,9-2.3,9.8-6.9
		C325,349.9,321.9,345.5,317.3,344.7z"/>
	<path class="st1" d="M291.6,295.6c4.7,0.8,9.1-2.3,9.9-6.9c0.8-4.7-2.3-9.1-6.9-9.9c-30.6-5.4-87.6-9.1-125.7,26.7
		c-3.9,3.7-7.5,7.7-10.8,12c-2.8,3.7-2.1,9.1,1.6,11.9c1.6,1.2,3.4,1.8,5.2,1.8c2.6,0,5.1-1.2,6.6-3.4c2.8-3.5,5.8-6.9,9-9.9
		C213.2,287.2,264.2,290.7,291.6,295.6z"/>
	<path class="st1" d="M269.6,229.6c4.7,0.8,9.1-2.3,9.9-6.9c0.8-4.7-2.3-9.1-6.9-9.9c-30.6-5.4-87.6-9.1-125.7,26.7
		c-3.9,3.7-7.5,7.7-10.8,12c-2.8,3.7-2.1,9,1.6,11.9c1.6,1.2,3.4,1.8,5.2,1.8c2.5,0,5.1-1.1,6.6-3.3c2.8-3.5,5.8-6.9,9-9.9
		C191.2,221.2,242.2,224.7,269.6,229.6z"/>
</g>
<g id="Слой_3" class="st3">
	
		<image style="display:inline;overflow:visible;opacity:0.47;enable-background:new    ;" width="806" height="797" xlink:href="C8A93096.jpeg"  transform="matrix(1.2403 0 0 1.2403 -210.643 -205.2328)">
	</image>
</g>
<text transform="matrix(1 0 0 1 722.0715 365.1826)" class="st4 st5 st6">Teach-In</text>
<polygon class="st7" points="1095.9,-306 1051.4,-306 1051.4,-306 "/>
</svg>
